<?xml version="1.0" encoding="utf-8"?>
<!-- Generator: Adobe Illustrator 20.1.0, SVG Export Plug-In . SVG Version: 6.00 Build 0)  -->
<svg version="1.1" id="logos" xmlns="http://www.w3.org/2000/svg" xmlns:xlink="http://www.w3.org/1999/xlink" x="0px" y="0px"
	 viewBox="0 0 125 40" enable-background="new 0 0 125 40" xml:space="preserve">
<g>
	<g>
		<g>
			<g>
				<path fill="#FFFFFF" d="M25.485,9.981c-0.613-1.516-1.838-2.667-3.329-3.136c-1.012-0.266-2.055-0.381-3.109-0.342l-11.857,0
					C6.148,6.465,5.105,6.58,4.105,6.842C2.597,7.315,1.37,8.471,0.766,9.97c-0.389,1.224-0.561,2.512-0.505,3.815l0,12.444
					c-0.055,1.289,0.116,2.578,0.497,3.779c0.612,1.522,1.839,2.677,3.334,3.147c1.012,0.266,2.055,0.381,3.109,0.342l11.857,0
					c1.043,0.038,2.086-0.077,3.085-0.339c1.508-0.473,2.735-1.629,3.339-3.128c0.389-1.224,0.561-2.512,0.505-3.816l0-12.444
					C26.042,12.486,25.872,11.202,25.485,9.981z"/>
			</g>
			<g>
				<path fill="#E5E5E5" d="M6.801,33.755c-0.933,0-1.866-0.12-2.773-0.358c-1.588-0.499-2.861-1.699-3.503-3.296
					c-0.4-1.261-0.572-2.561-0.515-3.883V13.785c-0.057-1.322,0.117-2.634,0.517-3.892C1.17,8.293,2.445,7.1,4.03,6.602
					C5.07,6.33,6.129,6.212,7.2,6.252l11.847,0c1.066-0.041,2.137,0.079,3.173,0.351c1.583,0.497,2.855,1.693,3.499,3.285
					l0.007,0.019c0.397,1.253,0.57,2.558,0.513,3.876v12.433c0.057,1.322-0.117,2.635-0.518,3.892
					c-0.644,1.601-1.918,2.793-3.503,3.292c-1.04,0.272-2.1,0.393-3.169,0.35l-11.847,0C7.068,33.753,6.935,33.755,6.801,33.755z
					 M6.799,6.747c-0.894,0-1.774,0.113-2.63,0.337C2.74,7.534,1.58,8.621,0.999,10.063c-0.375,1.183-0.541,2.438-0.487,3.711
					v12.455c-0.054,1.256,0.114,2.533,0.486,3.703c0.579,1.439,1.736,2.533,3.169,2.983c0.977,0.256,2,0.364,3.025,0.331l11.866,0
					c1.035,0.04,2.042-0.073,3.021-0.33c1.429-0.449,2.588-1.536,3.169-2.979c0.375-1.183,0.542-2.437,0.487-3.711V13.771
					c0.054-1.267-0.11-2.51-0.487-3.705c-0.588-1.447-1.743-2.533-3.168-2.981c-0.977-0.256-1.998-0.368-3.024-0.331l-11.866,0
					C7.06,6.75,6.929,6.747,6.799,6.747z"/>
			</g>
		</g>
		<ellipse fill="#FFCC00" cx="13.19" cy="22.16" rx="8.141" ry="8.202"/>
		<path fill="#FF3333" d="M17.267,13.8l0,7.673l-0.018,0.006c0,0.003,0,0.007,0,0.01c0,0.75-0.054,1.45-0.155,1.808
			c-0.485,1.718-2.055,2.965-3.916,2.965c-2.248,0-4.047-1.83-4.047-4.095s1.799-4.095,4.047-4.095c1.059,0,2.024,0.408,2.748,1.076
			c0.237,0.218,0.448,0.464,0.628,0.733c-0.05-0.24-0.099-0.543-0.099-0.802v-5.946V9.854l5.298,1.636v3.704L17.267,13.8z"/>
		<path fill-rule="evenodd" clip-rule="evenodd" fill="#222222" d="M122.246,28.41c1.557,0,2.395-1.304,2.395-1.304l0.359,0.942
			c0,0-0.886,1.353-2.778,1.353c-2.419,0-3.808-2.343-3.808-6.305c0-4.01,1.365-6.353,3.832-6.353c1.245,0,2.108,0.483,2.635,1.135
			l-0.311,1.208c-0.527-0.749-1.293-1.377-2.323-1.377c-1.844,0-2.706,1.957-2.706,5.387C119.54,26.429,120.378,28.41,122.246,28.41
			z M115.061,16.984h1.126v12.175h-1.126V16.984z M115.636,14.592c-0.431,0-0.766-0.338-0.766-0.773
			c0-0.411,0.335-0.797,0.766-0.797c0.407,0,0.766,0.387,0.766,0.797C116.403,14.254,116.043,14.592,115.636,14.592z
			 M110.199,29.401c-1.341,0-2.108-0.459-2.563-0.845l0.24-0.99c0.575,0.507,1.15,0.918,2.299,0.918
			c1.198,0,1.916-0.942,1.916-1.981c0-2.778-4.143-3.962-4.143-7.054c0-1.836,1.317-2.706,2.635-2.706
			c1.174,0,1.916,0.435,2.323,0.773l-0.311,1.039c-0.527-0.58-1.126-0.894-1.964-0.894c-0.886,0-1.677,0.58-1.677,1.643
			c0,2.633,4.191,3.648,4.191,7.054C113.145,28.289,111.78,29.401,110.199,29.401z M102.104,28.434c1.221,0,2.084-1.015,2.682-2.561
			v-8.89h1.126v12.175h-1.03l-0.048-2.005h-0.048c-0.335,0.87-1.221,2.247-2.874,2.247c-1.605,0-2.515-1.184-2.515-3.358v-9.059
			h1.126v8.914C100.523,27.589,101.026,28.434,102.104,28.434z M88.333,13.819c0,0.942-0.024,2.343-0.072,3.527l-0.503,11.813
			h-0.982l0.742-17.272h1.317l2.563,10.653c0.216,0.845,0.335,1.667,0.407,2.392h0.048c0.072-0.725,0.216-1.546,0.431-2.392
			l2.635-10.653h1.341l0.742,17.272h-1.15L95.35,17.25c-0.072-1.353-0.048-2.392-0.048-3.454H95.23
			c-0.144,1.087-0.311,2.102-0.575,3.116l-2.395,9.542h-0.934l-2.371-9.542c-0.24-0.942-0.431-1.908-0.551-3.092H88.333z
			 M79.735,16.984h1.82l-2.251,5.701l2.515,6.474h-1.94l-1.868-5.025l-1.82,5.025h-1.844l2.515-6.305l-2.275-5.87h1.94l1.557,4.421
			L79.735,16.984z M70.106,18.361c-1.15,0-1.557,1.425-1.677,3.599h3.09C71.52,19.883,71.184,18.361,70.106,18.361z M73.388,28.338
			c-0.766,0.604-1.7,0.99-2.898,0.99c-2.491,0-4.024-2.005-4.024-5.749c0-3.913,1.078-6.764,3.64-6.764
			c2.012,0,3.329,1.522,3.329,5.653v1.039h-5.03c0,2.754,0.766,4.203,2.251,4.203c1.054,0,1.82-0.483,2.299-0.821L73.388,28.338z
			 M62.73,26.792v-7.851c-0.383-0.387-0.79-0.58-1.413-0.58c-1.509,0-2.227,2.295-2.227,4.783c0,2.851,0.527,4.59,1.892,4.59
			C61.915,27.734,62.418,27.275,62.73,26.792z M60.766,29.328c-2.371,0-3.664-2.029-3.664-5.798c0-4.517,1.677-6.716,4.096-6.716
			c0.575,0,1.174,0.193,1.533,0.459v-5.387h1.868v17.272h-1.389l-0.144-0.966h-0.12C62.418,28.869,61.748,29.328,60.766,29.328z
			 M50.347,19.714v9.445h-1.868V16.96h1.868v1.063h0.12c0.335-0.459,1.245-1.208,2.371-1.208c1.581,0,2.419,0.894,2.419,2.754v9.59
			h-1.892v-9.421c0-0.918-0.407-1.232-1.126-1.232C51.449,18.506,50.778,19.11,50.347,19.714z M46.156,26.405
			c0,1.16,0.12,2.174,0.216,2.754h-1.581c-0.072-0.266-0.144-0.652-0.168-0.966h-0.12c-0.527,0.676-1.198,1.135-2.251,1.135
			c-1.724,0-2.898-1.304-2.898-3.696c0-2.609,1.317-4.252,4.694-4.252h0.263v-0.725c0-1.594-0.527-2.271-1.581-2.271
			c-0.958,0-1.772,0.507-2.395,1.063l-0.359-1.667c0.551-0.459,1.653-0.966,2.874-0.966c2.132,0,3.305,0.918,3.305,3.865V26.405z
			 M44.312,26.767v-3.962h-0.216c-2.323,0-2.826,1.039-2.826,2.609c0,1.401,0.455,2.319,1.413,2.319
			C43.33,27.734,43.977,27.299,44.312,26.767z M36.121,29.159h-1.892v-6.184l-4.096-11.088h2.06l3.018,8.552l3.473-10.339h1.892
			l-4.455,12.948V29.159z"/>
	</g>
	<rect x="0" y="0" fill="none" width="125" height="40"/>
</g>
</svg>
